<?xml version="1.0" encoding="UTF-8"?>
<svg id="Layer_1" data-name="Layer 1" xmlns="http://www.w3.org/2000/svg" viewBox="0 0 621 171.5">
  <defs>
    <style>
      .cls-1 {
        fill: #666;
      }

      .cls-1, .cls-2 {
        stroke-width: 0px;
      }

      .cls-2 {
        fill: #a0a0a0;
      }
    </style>
  </defs>
  <g>
    <path class="cls-2" d="M322,163.19h-32.66v-30.63h-65.33v30.63h-32.55v-91.79c0-8.47,1.71-16.42,5.12-23.85,3.41-7.43,8.06-13.93,13.94-19.48,5.88-5.55,12.78-9.93,20.71-13.13,7.93-3.2,16.41-4.8,25.44-4.8s17.51,1.6,25.44,4.8c7.93,3.2,14.85,7.58,20.77,13.13,5.92,5.55,10.58,12.04,14,19.48,3.41,7.44,5.12,15.39,5.12,23.85v91.79ZM289.34,102.03v-30.63c0-4.2-.85-8.17-2.56-11.9-1.71-3.74-4.04-6.99-7-9.77-2.96-2.77-6.43-4.96-10.41-6.56-3.98-1.6-8.21-2.4-12.69-2.4s-8.71.8-12.69,2.4c-3.98,1.6-7.45,3.79-10.41,6.56-2.96,2.77-5.29,6.03-7,9.77-1.71,3.74-2.56,7.7-2.56,11.9v30.63h65.33Z"/>
    <path class="cls-2" d="M480.65,147.5c-7.59,6.12-16.09,10.82-25.49,14.09-9.41,3.27-19.16,4.91-29.25,4.91-7.74,0-15.19-.94-22.36-2.83s-13.88-4.55-20.14-8c-6.26-3.45-11.97-7.59-17.13-12.43-5.16-4.84-9.58-10.19-13.26-16.06-3.68-5.87-6.53-12.17-8.54-18.89-2.01-6.72-3.02-13.71-3.02-20.97s1-14.27,3.02-21.03c2.01-6.76,4.85-13.07,8.54-18.94,3.68-5.87,8.1-11.22,13.26-16.06,5.16-4.84,10.87-8.98,17.13-12.43,6.26-3.45,12.97-6.12,20.14-8,7.17-1.88,14.62-2.83,22.36-2.83,10.09,0,19.84,1.62,29.25,4.86,9.41,3.24,17.91,7.95,25.49,14.14l-17.3,26.68c-4.78-4.84-10.43-8.56-16.96-11.15-6.53-2.6-13.35-3.9-20.49-3.9s-13.96,1.28-20.26,3.84c-6.3,2.56-11.8,6.03-16.5,10.41-4.71,4.38-8.42,9.54-11.15,15.48-2.73,5.94-4.1,12.26-4.1,18.94s1.37,12.97,4.1,18.84c2.73,5.87,6.45,11.01,11.15,15.42,4.7,4.41,10.2,7.9,16.5,10.46,6.3,2.56,13.05,3.84,20.26,3.84s13.96-1.3,20.49-3.9c6.52-2.6,12.18-6.31,16.96-11.15l17.3,26.68Z"/>
    <path class="cls-2" d="M611.42,163.19h-111.87V10.14h111.87v30.63h-79.21v30.63h53.6v30.63h-53.6v30.53h79.21v30.63Z"/>
  </g>
  <g>
    <path class="cls-2" d="M162.11,115.07c3.74-9.09,5.81-19.04,5.81-29.48,0-36.68-25.5-67.41-59.74-75.42v55.72l53.93,49.19Z"/>
    <path class="cls-1" d="M13.27,79.14c-.18,2.13-.27,4.27-.27,6.44,0,42.78,34.68,77.46,77.46,77.46,27.57,0,51.77-14.4,65.5-36.09l-52.42-47.82H13.27Z"/>
  </g>
</svg>